STARTFONT 2.1
COMMENT
COMMENT Converted from OpenType font "Q:\font stuff\winfont\Luftwaffe Regular.ttf" by "otf2bdf 3.0".
COMMENT
FONT -FreeType-Luftwaffe-Medium-R-Normal--40-400-72-72-P-126-ISO10646-1
SIZE 40 72 72
FONTBOUNDINGBOX 47 42 -6 -9
STARTPROPERTIES 19
FOUNDRY "FreeType"
FAMILY_NAME "Luftwaffe"
WEIGHT_NAME "Medium"
SLANT "R"
SETWIDTH_NAME "Normal"
ADD_STYLE_NAME ""
PIXEL_SIZE 40
POINT_SIZE 400
RESOLUTION_X 72
RESOLUTION_Y 72
SPACING "P"
AVERAGE_WIDTH 126
CHARSET_REGISTRY "ISO10646"
CHARSET_ENCODING "1"
FONT_ASCENT 32
FONT_DESCENT 8
COPYRIGHT "More KeyFonts TM SoftKey Software Products, Inc.  Copyright (c)1992 W.S.I.  All Rights Reserved.  Redistribution strictly prohibited.  RWE"
_OTF_FONTFILE "Q:\font stuff\winfont\Luftwaffe Regular.ttf"
_OTF_PSNAME "Luftwaffe"
ENDPROPERTIES
CHARS 231
STARTCHAR 0020
ENCODING 32
SWIDTH 325 0
DWIDTH 13 0
BBX 0 0 0 0
BITMAP
ENDCHAR
STARTCHAR 0021
ENCODING 33
SWIDTH 375 0
DWIDTH 15 0
BBX 7 28 3 0
BITMAP
78
7C
FC
FC
FC
FC
7C
7C
7C
7C
3C
38
38
18
18
18
08
00
00
00
10
18
38
7E
7E
38
18
10
ENDCHAR
STARTCHAR 0022
ENCODING 34
SWIDTH 450 0
DWIDTH 18 0
BBX 13 13 3 15
BITMAP
2020
6060
7070
F8F8
F8F8
F0F0
7070
7070
6060
6020
2020
2020
2020
ENDCHAR
STARTCHAR 0023
ENCODING 35
SWIDTH 625 0
DWIDTH 25 0
BBX 18 27 4 1
BITMAP
078F00
078F00
078F00
079F00
0F1E00
0F1E00
0F1E00
0F1E00
7FFFC0
7FFFC0
7FFFC0
1C3C00
1C3C00
1C3C00
1C3C00
1C3C00
FFFF00
FFFF00
FFFF00
387800
387800
387800
387800
387800
387800
70F800
70F000
ENDCHAR
STARTCHAR 0024
ENCODING 36
SWIDTH 625 0
DWIDTH 25 0
BBX 21 39 3 -6
BITMAP
002000
002000
002000
002000
03F000
0E2E00
382180
7020C0
7023E0
F02FE0
F02FF0
F02FF0
F82FE0
FE2FE0
FFE380
FFF800
7FFE00
3FFF80
1FFFC0
0FFFE0
03FFF0
007FF0
3C2FF8
FE23F8
FE21F8
FF20F8
FF2070
FE2070
F820E0
7020E0
3021C0
0E2700
03FC00
002000
002000
002000
002000
002000
002000
ENDCHAR
STARTCHAR 0025
ENCODING 37
SWIDTH 800 0
DWIDTH 32 0
BBX 30 27 1 0
BITMAP
07E00200
1C700600
3C780600
7C7C0C00
7C7E1C00
FC7E1800
FC7E3000
FC7E7000
FC7E6000
7C7EC000
7C7DC000
3C798000
1C738000
07C30F80
000638E0
000E78F0
000CF8F8
0018F8FC
0039F8FC
0031F8FC
0071F8FC
0061F8FC
00C0F8FC
01C0F8F8
018078F0
030038E0
03000F80
ENDCHAR
STARTCHAR 0026
ENCODING 38
SWIDTH 800 0
DWIDTH 32 0
BBX 31 30 1 -2
BITMAP
001F0000
0078C000
01F04000
03E06000
03E060F8
07E0619C
07E0E31E
07F0C23E
07F9847E
07FE047E
03FF847E
01FFC83C
07FFE810
0DFFFC00
3C7FFE00
3C3FFF00
7C1FFF80
FC07FF80
FE03FFC0
FF01FFC0
FF807FC0
FFC07FC0
7FF19FC0
7FFF0FC0
3FFF0FC0
3FFE0F80
0FFC0F80
03F01F00
00003E00
0001F000
ENDCHAR
STARTCHAR 0027
ENCODING 39
SWIDTH 250 0
DWIDTH 10 0
BBX 6 11 2 16
BITMAP
30
30
FC
FC
78
78
30
30
30
30
10
ENDCHAR
STARTCHAR 0028
ENCODING 40
SWIDTH 325 0
DWIDTH 13 0
BBX 13 37 0 -9
BITMAP
0018
0060
00C0
01C0
0380
0780
0F80
1F00
1F00
3F00
3F00
7F00
7F00
7F00
FF00
FF00
FF00
FF00
FF00
FF00
FF00
FF00
FF00
7F00
7F00
7F00
3F00
3F00
1F00
1F00
0F80
0780
0380
01C0
00C0
0060
0018
ENDCHAR
STARTCHAR 0029
ENCODING 41
SWIDTH 350 0
DWIDTH 14 0
BBX 13 37 0 -9
BITMAP
8000
6000
3800
1C00
0E00
0F00
0F80
07C0
07C0
07E0
07E0
07F0
07F0
07F0
07F8
07F8
07F8
07F8
07F8
07F8
07F8
07F8
07F8
07F0
07F0
07F0
07E0
07E0
07C0
0FC0
0F80
0F00
0E00
1C00
3800
6000
8000
ENDCHAR
STARTCHAR 002A
ENCODING 42
SWIDTH 400 0
DWIDTH 16 0
BBX 13 14 1 14
BITMAP
0780
0F80
0F80
6798
F738
FB78
7FF0
0200
7FF8
FB78
F738
6798
0F80
0780
ENDCHAR
STARTCHAR 002B
ENCODING 43
SWIDTH 575 0
DWIDTH 23 0
BBX 20 19 2 0
BITMAP
00F000
00F000
00F000
00F000
00F000
00F000
00F000
FFFFF0
FFFFF0
FFFFF0
FFFFF0
00F000
00F000
00F000
00F000
00F000
00F000
00F000
00F000
ENDCHAR
STARTCHAR 002C
ENCODING 44
SWIDTH 325 0
DWIDTH 13 0
BBX 7 15 3 -8
BITMAP
10
30
78
FE
FE
7C
38
30
30
30
20
20
40
40
80
ENDCHAR
STARTCHAR 002D
ENCODING 45
SWIDTH 375 0
DWIDTH 15 0
BBX 10 3 2 9
BITMAP
FFC0
FFC0
FFC0
ENDCHAR
STARTCHAR 002E
ENCODING 46
SWIDTH 325 0
DWIDTH 13 0
BBX 7 8 3 0
BITMAP
10
30
78
FE
FE
78
38
10
ENDCHAR
STARTCHAR 002F
ENCODING 47
SWIDTH 275 0
DWIDTH 11 0
BBX 10 28 1 1
BITMAP
01C0
01C0
01C0
03C0
0380
0380
0380
0700
0700
0700
0F00
0E00
0E00
0E00
1C00
1C00
1C00
3C00
3800
3800
3800
7000
7000
7000
F000
E000
E000
E000
ENDCHAR
STARTCHAR 0030
ENCODING 48
SWIDTH 625 0
DWIDTH 25 0
BBX 23 27 1 0
BITMAP
00FE00
03C780
0783C0
0F83E0
1F83F0
3F83F8
3F83FC
7F83FC
7F83FC
7F83FE
FF83FE
FF83FE
FF83FE
FF83FE
FF83FE
FF83FE
FF83FE
7F83FE
7F83FC
7F83FC
3F83FC
3F83F8
1F83F0
0F83E0
0783C0
03C780
007E00
ENDCHAR
STARTCHAR 0031
ENCODING 49
SWIDTH 625 0
DWIDTH 25 0
BBX 18 27 4 0
BITMAP
003800
007800
007800
00F800
01F800
07F800
FFF800
07F800
07F800
07F800
07F800
07F800
07F800
07F800
07F800
07F800
07F800
07F800
07F800
07F800
07F800
07F800
07F800
07F800
07F800
07F800
7FFFC0
ENDCHAR
STARTCHAR 0032
ENCODING 50
SWIDTH 625 0
DWIDTH 25 0
BBX 21 27 1 -1
BITMAP
03FC00
0C1F80
100FE0
3007F0
7007F0
7E07F8
7F07F8
FF07F8
7F07F8
7F07F8
7F0FF8
1E0FF8
001FF0
003FE0
007FC0
00FF00
01F808
038008
040008
1FF818
1FFFF8
27FFF8
23FFF8
20FFF0
707FF0
303FE0
300F80
ENDCHAR
STARTCHAR 0033
ENCODING 51
SWIDTH 625 0
DWIDTH 25 0
BBX 21 27 2 0
BITMAP
03FC00
1C3F80
381FC0
7E0FE0
7F0FF0
7F8FF0
7F8FF0
3F8FF0
1E0FF0
000FE0
000FC0
001F00
07FC00
001F80
000FE0
000FF0
0007F8
3C07F8
7E07F8
FF07F8
FF07F8
FF07F8
FE07F8
780FF0
300FE0
181F80
07FC00
ENDCHAR
STARTCHAR 0034
ENCODING 52
SWIDTH 625 0
DWIDTH 25 0
BBX 23 27 1 0
BITMAP
0007C0
000FC0
000FC0
001FC0
003FC0
003FC0
005FC0
00DFC0
009FC0
011FC0
031FC0
021FC0
041FC0
0C1FC0
081FC0
101FC0
301FC0
201FC0
401FC0
FFFFFE
001FC0
001FC0
001FC0
001FC0
001FC0
001FC0
01FFFE
ENDCHAR
STARTCHAR 0035
ENCODING 53
SWIDTH 625 0
DWIDTH 25 0
BBX 22 28 2 0
BITMAP
000040
0000C0
3FFFC0
3FFF80
3FFF80
3FFF00
3FFE00
3FF000
200000
200000
20FE00
231FC0
2C0FE0
300FF0
2007F8
2007F8
0007FC
0007FC
3C07FC
7E07FC
FF07FC
FF07F8
FF07F8
FE0FF0
780FE0
300FC0
183F00
07F800
ENDCHAR
STARTCHAR 0036
ENCODING 54
SWIDTH 625 0
DWIDTH 25 0
BBX 21 27 2 0
BITMAP
007F00
03C1C0
0781E0
0F07F0
1F0FF0
3F0FF0
3F0FE0
7F07C0
7F0000
FF0000
FF3F00
FF4FC0
FF8FE0
FF07F0
FF07F0
FF07F8
FF07F8
FF07F8
FF07F8
7F07F8
7F07F8
3F07F0
3F07F0
1F07E0
0F0FC0
078F00
00FC00
ENDCHAR
STARTCHAR 0037
ENCODING 55
SWIDTH 625 0
DWIDTH 25 0
BBX 20 27 3 0
BITMAP
C3C0E0
CFF0E0
DFF8F0
DFFC70
FFFE30
BFFF10
FFFFB0
E0FFE0
C00020
800040
800080
800380
800F00
003E00
007E00
01FC00
03FC00
07FC00
07FC00
0FFC00
0FFC00
0FFC00
0FFC00
0FFC00
0FF800
07F800
03E000
ENDCHAR
STARTCHAR 0038
ENCODING 56
SWIDTH 625 0
DWIDTH 25 0
BBX 23 27 1 0
BITMAP
01FF00
0F01E0
1C0070
380038
78003C
78003C
FC003C
FF003C
FFE078
FFFC70
7FFF80
7FFFF0
7FFFF8
3FFFFC
0FFFFE
07FFFE
1CFFFE
780FFE
7801FE
F0007E
F0003E
F0003E
70003C
780038
3C0070
0F00E0
01FF00
ENDCHAR
STARTCHAR 0039
ENCODING 57
SWIDTH 625 0
DWIDTH 25 0
BBX 21 27 2 0
BITMAP
01F800
0F8F00
1F0F80
3F07C0
7F07E0
7F07E0
FF07F0
FF07F0
FF07F8
FF07F8
FF07F8
FF07F8
FF0FF8
7F0FF8
3F0FF8
1F97F8
07E7F8
0007F8
0007F0
3E07F0
7F07F0
7F07E0
7F07C0
7E0F80
3C0F00
1C1E00
07F000
ENDCHAR
STARTCHAR 003A
ENCODING 58
SWIDTH 325 0
DWIDTH 13 0
BBX 7 20 3 0
BITMAP
10
30
78
FE
FE
78
38
10
00
00
00
00
10
30
78
FE
FE
78
38
10
ENDCHAR
STARTCHAR 003B
ENCODING 59
SWIDTH 325 0
DWIDTH 13 0
BBX 7 27 3 -8
BITMAP
10
30
78
FE
FE
7C
38
10
00
00
00
00
00
10
30
78
FE
FE
78
38
30
30
30
20
20
40
80
ENDCHAR
STARTCHAR 003C
ENCODING 60
SWIDTH 550 0
DWIDTH 22 0
BBX 18 19 2 1
BITMAP
0000C0
0003C0
000FC0
003FC0
00FF80
03FE00
0FF800
3FE000
FF8000
FE0000
FE0000
FF8000
7FF000
0FFC00
03FF80
007FC0
001FC0
0007C0
0000C0
ENDCHAR
STARTCHAR 003D
ENCODING 61
SWIDTH 600 0
DWIDTH 24 0
BBX 20 13 2 4
BITMAP
FFFFF0
FFFFF0
FFFFF0
FFFFF0
000000
000000
000000
000000
000000
FFFFF0
FFFFF0
FFFFF0
FFFFF0
ENDCHAR
STARTCHAR 003E
ENCODING 62
SWIDTH 550 0
DWIDTH 22 0
BBX 19 19 1 1
BITMAP
400000
700000
7E0000
7F8000
7FE000
0FF800
03FE00
00FF80
003FE0
000FE0
000FE0
007FE0
01FFC0
0FFE00
3FF800
FFC000
7F0000
780000
600000
ENDCHAR
STARTCHAR 003F
ENCODING 63
SWIDTH 425 0
DWIDTH 17 0
BBX 15 28 1 0
BITMAP
0FC0
31F0
40F8
C0FC
F07C
F8FE
FCFE
F8FC
79FC
01F8
03F0
03E0
0780
0600
0410
0410
0420
0420
03C0
0000
0100
0380
07C0
0FE0
0FE0
07C0
0380
0100
ENDCHAR
STARTCHAR 0040
ENCODING 64
SWIDTH 775 0
DWIDTH 31 0
BBX 28 28 2 0
BITMAP
003FE000
01FFF800
03FFFE00
0FE01F00
1F000780
1E0003C0
3C0101E0
780780E0
701FE0E0
7077F070
E0F3E070
E0F1E070
E0F1E070
E0F1E070
E0F1E0E0
E0F1E0E0
E0F1E1C0
E0F1E3C0
E0F3E780
70FDFF00
7078FE00
38206000
3C000000
1E000000
0F000600
07C03E00
01FFF800
003FC000
ENDCHAR
STARTCHAR 0041
ENCODING 65
SWIDTH 750 0
DWIDTH 30 0
BBX 29 27 0 0
BITMAP
07F04038
18FC21F0
207E23E0
407E1FC0
603F1FC0
703F0FC0
783F0FC0
FC3F0FC0
FE3F0FC0
FF3F0FC0
7F3F0FC0
7F3F0FC0
7F3F0FC0
1F3F0FC0
073E0FC0
033E0FC0
02380FC0
04300FC0
18400FC0
00E00FC0
01F81FC0
03FE3FC0
07FF4FE0
0FFF87F0
10FF07E0
203C07C0
20180380
ENDCHAR
STARTCHAR 0042
ENCODING 66
SWIDTH 825 0
DWIDTH 33 0
BBX 30 28 1 0
BITMAP
07E03F00
19F9DF80
20FD1FC0
607F0FE0
E07F0FE0
F07F0FE0
F87F0FE0
F87F07E0
FC3F07E0
FC3F03FC
FE7E0080
7E7E07C0
7C7E7FF0
3C7FFFF8
1C7E1FF8
187C07F8
107803FC
606001FC
07C000F8
0FE00078
3FF80078
3FFE0030
67FF0060
41FFC040
40FFF080
003FFF00
001FFC00
0007E000
ENDCHAR
STARTCHAR 0043
ENCODING 67
SWIDTH 725 0
DWIDTH 29 0
BBX 29 28 1 1
BITMAP
00FE0600
03E30E00
0FC11F00
1F80BF88
1F80FFF0
3F831FE0
7F0787C0
7F0F8000
FF1FC000
FF1FE000
FF1FF000
FF1FF000
FF1FF800
FF0FFC00
FF07FC00
FF07FE00
FF23FE00
FF21FE00
7F20FE00
7F10FC10
3F187C10
3F8CF820
1F83E020
0FC00040
07C00080
03E00100
00FC0E00
001FF000
ENDCHAR
STARTCHAR 0044
ENCODING 68
SWIDTH 775 0
DWIDTH 31 0
BBX 29 28 1 0
BITMAP
00FF8000
07FFF000
0FFFFC00
3FFFFE00
3FFFFF00
7FFFFF80
FFFFFFC0
FC087FE0
E0100FE0
803C03F0
803F00F0
807F8070
807FC030
807FE018
607FE018
3E3FF018
000FE010
0003E010
0001E010
00004010
03F88020
0FFF8020
1FFFE040
3FFFFFC0
63FFFF80
40FFFF00
401FFC00
0003F000
ENDCHAR
STARTCHAR 0045
ENCODING 69
SWIDTH 775 0
DWIDTH 31 0
BBX 30 28 1 1
BITMAP
00FE0600
03F10E00
07E0BF04
0FC07FF8
1FC0BFF0
3FC187C0
7FC78000
7F87C000
7F8FC1E0
FF8FE270
FF8FE4F8
FF8FF5F8
FF87FDF8
FF87FDF8
FF83FCF0
FF83FC00
FF91FE00
FF90FE00
7F90FE00
7F887C00
3F887C00
3FC47820
1FC3E020
0FC00040
07E000C0
03F00300
00FC0E00
001FF000
ENDCHAR
STARTCHAR 0046
ENCODING 70
SWIDTH 725 0
DWIDTH 29 0
BBX 28 37 1 -9
BITMAP
03F80000
1FFF0200
3FFFC1C0
7FFFE020
FFFFF820
FFFFFE30
E0FFFFE0
801FFFE0
8003FFC0
8000BF00
80008000
802187C0
40418BE0
6083CBE0
1F03CBF0
0003EBE0
0003F9C0
1F03F800
27C3F800
47E3FC00
87E3FE00
0FE1FE00
0FF1FF00
1FE0FF00
1FE0FF00
3FE07F00
3FC07F80
3F803F80
3F803F00
3F003F00
3F001F00
3F003E00
1F003E00
0F003C00
07807800
01C1E000
007F0000
ENDCHAR
STARTCHAR 0047
ENCODING 71
SWIDTH 875 0
DWIDTH 35 0
BBX 32 28 1 0
BITMAP
003F0000
01F0C878
03E030E0
07C053F8
0F8193FC
1F8387FC
3F87C3FC
3F87C3FC
7F8FC1F8
7F0FE0F0
7F1FE0E0
FF0FF3FC
FF0FFDFE
FF0FF8FF
FF0FF8FF
FF07FCFF
7F07FCFF
7F03FCFF
7FA1FCFF
7F91FCFF
3F90FCFF
3F88F8FE
1FCCF0FC
0FC3E0FC
07E001F0
01F003E0
00780F80
000FFC00
ENDCHAR
STARTCHAR 0048
ENCODING 72
SWIDTH 825 0
DWIDTH 33 0
BBX 31 37 1 -8
BITMAP
0000C000
0003C000
000FE020
0037F840
00C7FF80
0383FF00
0F81FE00
1F80F800
1F800000
1F800000
1FC03F00
1FC0FFC0
1FE1FFF0
1FE63FF8
0FF80FF8
0FF807FC
07FC03FC
07FC01FC
73FE01FE
F9FE01FE
FDFC01FC
FCFC00FC
F8FC00FC
F87801F8
70F001F8
71C001F0
1F0F81E0
003FE3C0
007FF700
00FFFC00
00C7F000
0083C000
00810000
00800400
00C00800
00607000
001F8000
ENDCHAR
STARTCHAR 0049
ENCODING 73
SWIDTH 650 0
DWIDTH 26 0
BBX 24 30 1 -1
BITMAP
01F008
07FC04
0FFF02
1FFFC2
30FFF3
203FFE
200FFE
2007FE
2001FC
200070
2040F8
10C3E4
0F03E2
0007E1
0007E0
0007F0
0007F0
0007F8
3E07F8
7F03FC
FF83FC
9F81FC
8FC1FE
8FC1FE
8FC0FC
87E0FC
07E078
03E0F8
01F0E0
003F80
ENDCHAR
STARTCHAR 004A
ENCODING 74
SWIDTH 650 0
DWIDTH 26 0
BBX 27 37 -2 -9
BITMAP
00FC0000
03FF0000
07FFC000
0FFFE000
0FFFF040
187FFC40
101FFE40
3007FFC0
2003FF80
2000FF00
10003E00
10000000
08001F00
04083CC0
03F07C40
0000FC20
0000FE20
0001FE00
0001FF00
0000FF00
0000FF80
0000FF80
00007FC0
1F007FC0
3F807FC0
7FC03FC0
4FE03FC0
CFE01FC0
8FE01FC0
87F01FC0
47F00FC0
03F00F80
03F80F00
01F80E00
01FC0C00
007E1800
001FE000
ENDCHAR
STARTCHAR 004B
ENCODING 75
SWIDTH 700 0
DWIDTH 28 0
BBX 27 27 1 0
BITMAP
003FC000
01F03800
07C00C00
1F800200
3F07C100
3F1FF180
7F3FF880
7F7FFC40
7F61FE40
7F407E40
7F407E40
7F407E20
7F403F00
3FC1C000
3FFFE000
1FE1F800
0FF1F800
07F0F800
03F0F800
01F8F800
78F8F800
F870FC00
FC70FC20
FC30FCC0
FC60FF00
7C607C00
3F801800
ENDCHAR
STARTCHAR 004C
ENCODING 76
SWIDTH 575 0
DWIDTH 23 0
BBX 22 28 0 0
BITMAP
01FE00
070380
0E01E0
1C00F0
3C00F0
3C00F8
7E00F8
7E01F8
7F03F8
7F83F8
3F87F8
3FCFF0
1FCFE0
0FCFE0
0FC7C0
07C7C4
038388
0301F0
040000
1F0000
3FC000
7FF004
7FF808
CFFE18
83FFF8
01FFF0
007FE0
001F80
ENDCHAR
STARTCHAR 004D
ENCODING 77
SWIDTH 1025 0
DWIDTH 41 0
BBX 40 27 0 0
BITMAP
03F03F03E0
1FFC7F8DF8
21FE9FD1F8
40FF0FF0F8
40FF0FF0F8
607F0FF0FC
F87F8FF0FC
FC7F87F0FC
FE3F87F0FC
FF3F87F07C
FF3F87F007
7FBF87F038
3FBFC7F0F0
1F3FC7F1F0
0F3FC7E3F0
063F87E3F0
0C3F87E3F0
703F07C3F0
003E0783F0
043C0783F0
06398703F0
0F3BC603F0
1FF7E403F0
3FEFF803F9
5FD3F001FE
87B0F001F8
8360600060
ENDCHAR
STARTCHAR 004E
ENCODING 78
SWIDTH 775 0
DWIDTH 31 0
BBX 31 27 0 0
BITMAP
03F80F80
0FFE3FE0
11FF47F0
207FC7F0
207FC7F0
703FC3F0
7C3FC3F0
7E3FC3F8
7F3FE1F8
7F3FE038
7F9FE0FE
3F9FE3F0
1F9FE7E0
0F9FE7E0
071FEFC0
031FCFC0
041FCFC0
381F8FC0
001F8FC0
001F0FC0
061E0FC0
0F1C0FC0
1F900FC0
1FE007E2
7FC007FC
478003E0
83000180
ENDCHAR
STARTCHAR 004F
ENCODING 79
SWIDTH 800 0
DWIDTH 32 0
BBX 31 28 0 0
BITMAP
001FF000
007FFE00
019FFF80
039FFFC0
079FFFE0
0F9FFFF0
1FCFFFF8
1FC7FFF8
1FE01FFC
1FE0003C
1FE0000E
0FF00006
0FF00006
87F00002
87F00002
43E00002
23C00002
1F000002
03E00004
0FFC0004
1FFE0004
3FFF8008
47FFE008
81FFF830
80FFFFE0
003FFFC0
000FFF00
0003F800
ENDCHAR
STARTCHAR 0050
ENCODING 80
SWIDTH 800 0
DWIDTH 32 0
BBX 31 37 0 -9
BITMAP
07E01F80
18F863E0
207C83F0
707E83F0
F07F03F0
F83F03F0
FC3F03F0
FE3F03F0
FE3F01F0
FF3F00F0
7F3F003E
7F3F03C0
3F3F07E0
1E3F0FF8
063F0FFC
043F0FFE
383F07FE
003F03FE
01FF00FE
07FF003C
0FFF801C
0FFFE008
1FFFF808
10FFFE10
103FFFE0
003FFFC0
003FFF00
003E7C00
003E0000
003E0000
003E0000
001C0000
001C0000
001C0000
00180000
00180000
00080000
ENDCHAR
STARTCHAR 0051
ENCODING 81
SWIDTH 900 0
DWIDTH 36 0
BBX 36 28 0 0
BITMAP
001FF00000
00FFFE0000
03BFFF8000
073FFFC000
0F3FFFE000
1F3FFFF000
1F9FFFF800
3F8FFFF800
3FC0007C00
3FE0001C00
3FE0000C00
1FF0000600
1FF0000600
8FF0000200
8FF0000200
47E0000200
43E0000200
23C0000200
1F00000200
0000000600
03F8000610
0FFF000E10
1FFFF03B30
3FFFFFF7F0
63FFFFE7F0
C0FFFFC7F0
001FFF07E0
0003FC03C0
ENDCHAR
STARTCHAR 0052
ENCODING 82
SWIDTH 825 0
DWIDTH 33 0
BBX 31 27 1 0
BITMAP
07E01F00
19F86FC0
60FC8FC0
60FE87E0
E07E87E0
F07F87E0
F87F87F0
FC7F87F0
FE7F87F0
FE7F83F0
7E7F81F0
7F7F807C
3E3FFFC0
1E3F9FC0
0E3F8FC0
083F07E0
703F07E0
003F07E0
003F07E0
183F07E0
7C7E07E0
7E7E07E0
7C7C07E0
7C7C07E2
707807EC
30F007F0
1FC00180
ENDCHAR
STARTCHAR 0053
ENCODING 83
SWIDTH 775 0
DWIDTH 31 0
BBX 27 28 1 0
BITMAP
007E0000
01FFC000
07FFF020
0FFFFC20
1FFFFF20
1C1FFFC0
3007FF80
2001FF00
41E03E00
46180000
4401FC00
8807FF00
881FFFC0
8C7FFE40
87FFF820
C7FFF020
43FFC020
61FF8020
70FC0060
7C0000E0
3F000FE0
3FFFFFC0
1FFFFFC0
0FFFFF80
07FFFF00
03FFFE00
00FFF800
003FE000
ENDCHAR
STARTCHAR 0054
ENCODING 84
SWIDTH 700 0
DWIDTH 28 0
BBX 27 29 0 0
BITMAP
03F80000
0FFE0000
1FFF8000
3FFFC180
7FFFF040
7FFFF820
E0FFFE20
C01FFF20
8007FFE0
800BFFE0
801CFFC0
403E1F00
203F0000
1E7F8000
007FC000
007FE000
003FE000
001FE000
000FE000
0003C000
07F18000
1FFE0000
3FFF0020
7FFFC020
47FFF040
41FFFF80
007FFF00
001FFE00
0003F800
ENDCHAR
STARTCHAR 0055
ENCODING 85
SWIDTH 650 0
DWIDTH 26 0
BBX 27 27 -1 1
BITMAP
06000000
0F001800
1F803C00
1FC07E00
3FC0FF00
7FC3FFC0
8FC0FF00
0FC07E00
0FC07E00
0FC07E00
0FC07E00
0FC07E00
0FC07E00
0FC07E00
0FC07E00
0FC07E00
0FC07E00
0FC07E00
0FC07E00
0FC07E00
0FC07E00
0FC0FE00
7FFB7F20
1FFC7FC0
07F03F00
03E03E00
00C00C00
ENDCHAR
STARTCHAR 0056
ENCODING 86
SWIDTH 800 0
DWIDTH 32 0
BBX 30 28 1 0
BITMAP
07F03F00
39FCDF80
20FE8FC0
60FE8FE0
F07F8FE0
F87F87F0
FC7F87F0
FE7F87F0
FF7F83F0
FF3F81F0
7FBF037C
3FBF0F00
1F3F1FC0
0F3F1FE0
0E3E1FF0
0C3C1FF8
70380FF8
002007FC
03F803FC
0FFC01F8
1FFF0078
67FF8038
41FFC030
00FFE020
003FF840
001FFC80
000FFF00
0003F000
ENDCHAR
STARTCHAR 0057
ENCODING 87
SWIDTH 1025 0
DWIDTH 41 0
BBX 40 28 1 0
BITMAP
07F0703F00
19FCF8CFC0
20FF8507E0
607F0303F0
E07F0703F0
F07F0F03F8
F87F0F83F8
FC7F9F83F8
FE3F9FC1F8
FF3F9FE07F
FF3F1FE0C0
7FBF1FF1C0
3F3F1FF3F0
0F7F0FFBF8
067E07F3FC
067C07F3FE
087803F3FE
306001E1FF
008001C0FF
0FE001007E
1FF003E03E
3FFC07F81E
7FFF0FFC0C
FFFFFFFE08
8FFFF7FF90
83FFE1FFE0
80FF80FFC0
001E003F00
ENDCHAR
STARTCHAR 0058
ENCODING 88
SWIDTH 650 0
DWIDTH 26 0
BBX 27 27 0 0
BITMAP
01800F00
03F03FC0
07F847C0
0FFC47C0
1FFE87E0
3FFE87C0
61FF87C0
807F8380
003F8000
003F8000
003F8100
001F8100
07FFFF00
0FFFFE00
0FFFFC00
181F8000
101F8000
101F8000
003F8000
003F8000
703FC000
F83FE0C0
FC3FFF80
FC4FFE00
F84FFC00
F183F000
7F00E000
ENDCHAR
STARTCHAR 0059
ENCODING 89
SWIDTH 775 0
DWIDTH 31 0
BBX 28 37 1 -9
BITMAP
07E07800
19F9BE00
20FD1F00
607F1F80
E07F1F80
F07F1FC0
F87F1FC0
F83F1FC0
FC3F1FE0
FC3F1FE0
FC7F1FE0
FE7F1FE0
7E7E1FE0
3C7E0FE0
1C7E0FF0
0C7E0FF0
087C0FF0
08F80FF0
30E00FF0
00C00FE0
03C00FE0
0FF01FE0
1FF89FE0
3FFD1FE0
23FE1FE0
40FC1FE0
00781FC0
00301FC0
00201FC0
00001F80
07C01F80
0FE03F00
0FF03E00
0FF03C00
0FE07800
07C1E000
01FF8000
ENDCHAR
STARTCHAR 005A
ENCODING 90
SWIDTH 625 0
DWIDTH 25 0
BBX 26 37 -3 -9
BITMAP
003FC000
01C1F800
0200FC00
04007E00
08003F00
08003F80
08003F80
10003F80
10E03F80
01F03F80
03F03F80
03F03F80
01E03F00
01C07E00
00C0F800
003F8000
00C1F000
01007C00
02007F00
02003F80
04003F80
04003FC0
00003FC0
00003FC0
00003FC0
1E003FC0
3F803FC0
5F803FC0
4FC03FC0
8FC03FC0
8FC03FC0
8FC03F80
07C03F80
07E03F00
03E07E00
01F0F800
003FC000
ENDCHAR
STARTCHAR 005B
ENCODING 91
SWIDTH 325 0
DWIDTH 13 0
BBX 10 37 2 -9
BITMAP
FFC0
FC00
FC00
FC00
FC00
FC00
FC00
FC00
FC00
FC00
FC00
FC00
FC00
FC00
FC00
FC00
FC00
FC00
FC00
FC00
FC00
FC00
FC00
FC00
FC00
FC00
FC00
FC00
FC00
FC00
FC00
FC00
FC00
FC00
FC00
FC00
FFC0
ENDCHAR
STARTCHAR 005C
ENCODING 92
SWIDTH 275 0
DWIDTH 11 0
BBX 10 28 1 0
BITMAP
E000
E000
E000
E000
7000
7000
7000
3800
3800
3800
3C00
1C00
1C00
1C00
0E00
0E00
0E00
0F00
0700
0700
0700
0380
0380
0380
03C0
01C0
01C0
01C0
ENDCHAR
STARTCHAR 005D
ENCODING 93
SWIDTH 325 0
DWIDTH 13 0
BBX 10 37 1 -9
BITMAP
FFC0
0FC0
0FC0
0FC0
0FC0
0FC0
0FC0
0FC0
0FC0
0FC0
0FC0
0FC0
0FC0
0FC0
0FC0
0FC0
0FC0
0FC0
0FC0
0FC0
0FC0
0FC0
0FC0
0FC0
0FC0
0FC0
0FC0
0FC0
0FC0
0FC0
0FC0
0FC0
0FC0
0FC0
0FC0
0FC0
FFC0
ENDCHAR
STARTCHAR 005E
ENCODING 94
SWIDTH 600 0
DWIDTH 24 0
BBX 17 11 3 16
BITMAP
03E000
03F000
07F000
07F800
0FFC00
1F3C00
1E3E00
3C1E00
780F00
780780
F00380
ENDCHAR
STARTCHAR 005F
ENCODING 95
SWIDTH 500 0
DWIDTH 20 0
BBX 20 1 0 -4
BITMAP
FFFFF0
ENDCHAR
STARTCHAR 0060
ENCODING 96
SWIDTH 225 0
DWIDTH 9 0
BBX 6 6 1 24
BITMAP
F0
70
78
78
0C
04
ENDCHAR
STARTCHAR 0061
ENCODING 97
SWIDTH 500 0
DWIDTH 20 0
BBX 17 20 2 1
BITMAP
00C000
01E000
07F800
1FFC00
7CFF80
FC7E00
FC7E00
FC7E00
FC7E00
FC7E00
FC7E00
FC7E00
FC7E00
FC7E00
FC7E00
FC7E00
FCFE00
FF7F80
7C3E00
381C00
ENDCHAR
STARTCHAR 0062
ENCODING 98
SWIDTH 500 0
DWIDTH 20 0
BBX 17 27 1 0
BITMAP
00F000
078000
9F0000
9F0000
7F0000
7F0000
7F0000
3F0400
3F0E00
3F3F00
3F7F00
3FFF80
3F1F80
3F1F80
3F1F80
3F1F80
3F1F80
3F1F80
3F1F80
3F1F80
3F1F80
3F1F00
7F1F00
FF9C00
1FD000
07E000
030000
ENDCHAR
STARTCHAR 0063
ENCODING 99
SWIDTH 400 0
DWIDTH 16 0
BBX 14 20 2 1
BITMAP
00E0
07E0
3FF0
7DF0
FDF8
FCF8
FCF8
FCE0
FC40
FC00
FC00
FC00
FC00
FC00
FE00
FE04
7F98
3FE0
1F80
0600
ENDCHAR
STARTCHAR 0064
ENCODING 100
SWIDTH 500 0
DWIDTH 20 0
BBX 15 27 2 0
BITMAP
1E00
7000
6000
F000
FE00
FF80
7FF0
7FF8
3FFC
0FFC
02FE
027E
7E7E
7E7E
7E7E
7E7E
7E7E
7E7E
7E7E
7E7E
7E7E
7F7E
FFFC
FFF8
3FC0
0F00
0200
ENDCHAR
STARTCHAR 0065
ENCODING 101
SWIDTH 425 0
DWIDTH 17 0
BBX 15 20 2 1
BITMAP
00E0
03E0
1FF0
3FF0
7DF8
FDFC
FCFC
FC7C
FC70
FC60
FD80
FE00
FC00
FC00
FE00
7F02
7F8C
3FF0
0FC0
0700
ENDCHAR
STARTCHAR 0066
ENCODING 102
SWIDTH 325 0
DWIDTH 13 0
BBX 12 36 1 -9
BITMAP
1E20
3F60
3FE0
3FC0
3FC0
2780
2000
3000
7C00
7FF0
7FF0
FFF0
3F80
3F80
3F80
3F80
3F80
3F00
3F00
3F00
3F00
3F00
3F00
3F00
1F00
1E00
1E00
1E00
1E00
1E00
0C00
0C00
0C00
0C00
0C00
0C00
ENDCHAR
STARTCHAR 0067
ENCODING 103
SWIDTH 500 0
DWIDTH 20 0
BBX 17 30 2 -8
BITMAP
00C000
03E000
07F000
1FFC00
7FFF80
FDFE00
FC7E00
FC7E00
FC7E00
FC7E00
FC7E00
FC7E00
FC7E00
FC7E00
FC7E00
FC7E00
FC7E00
FDFE00
7E7E00
3C7F00
183F00
003F80
001F80
3C1F80
7E0F80
7E0F00
7E0F00
7C1E00
383800
0FE000
ENDCHAR
STARTCHAR 0068
ENCODING 104
SWIDTH 500 0
DWIDTH 20 0
BBX 17 37 0 -9
BITMAP
00F800
07C000
8F8000
9F8000
5F0000
3F0000
3F0000
3F0200
3F0600
3F0F00
3F3F80
3FDF80
3F1F80
3F1F80
3F1F80
3F1F80
3F1F80
3F1F80
3F1F80
3F1F80
3F1F80
3F1F80
3F1F80
3F1F80
FFDF80
3F9F80
1F1F80
0E1F80
041F00
001F00
001E00
003C00
003C00
003000
006000
008000
030000
ENDCHAR
STARTCHAR 0069
ENCODING 105
SWIDTH 300 0
DWIDTH 12 0
BBX 10 27 1 0
BITMAP
1E00
3F00
3F00
3F00
1E00
0C00
0000
0400
1E00
3E00
7F80
FFC0
3F00
3F00
3F00
3F00
3F00
3F00
3F00
3F00
3F00
3F00
3F00
3F40
1F80
1F00
0C00
ENDCHAR
STARTCHAR 006A
ENCODING 106
SWIDTH 300 0
DWIDTH 12 0
BBX 13 36 -2 -8
BITMAP
0780
0FC0
0FC0
0FC0
0780
0300
0000
0100
0380
07C0
0FE0
3FF8
0FE0
0FC0
0FC0
0FC0
0FC0
0FC0
0FC0
0FC0
0FC0
0FC0
0FC0
0FC0
0FC0
0FC0
0FC0
0FC0
0FC0
0FE0
0FE0
0FE0
0FD0
0F88
1F00
F800
ENDCHAR
STARTCHAR 006B
ENCODING 107
SWIDTH 500 0
DWIDTH 20 0
BBX 21 27 0 0
BITMAP
00F800
07C000
8F8000
9F8000
5F0000
3F0000
3F0000
3F0000
3F0380
3F0FC0
3F1FC0
3F7FC0
3F8F80
3F0700
3F0300
3F0F80
3F3F80
3FDFC0
3F1FC0
3F0FC0
3F0FE0
3F0FE0
3F07E0
3F07E8
FFC7F0
1F03C0
0C0380
ENDCHAR
STARTCHAR 006C
ENCODING 108
SWIDTH 300 0
DWIDTH 12 0
BBX 12 27 0 0
BITMAP
00F0
03C0
8F80
5F80
5F00
3F00
3F00
3F00
3F00
3F00
3F00
3F00
3F00
3F00
3F00
3F00
3F00
3F00
3F00
3F00
3F00
3F00
3F00
3F90
7FE0
1F80
0600
ENDCHAR
STARTCHAR 006D
ENCODING 109
SWIDTH 750 0
DWIDTH 30 0
BBX 29 20 1 1
BITMAP
0C060100
1E0F0780
3F1F8FC0
7F3F9FE0
FF5FAFF0
3F9FCFC0
3F1F8FC0
3F1F8FC0
3F1F8FC0
3F1F8FC0
3F1F8FC0
3F1F8FC0
3F1F8FC0
3F1F8FC0
3F1F8FC0
3F1F8FC0
3F1F8FC8
FFFFCFF0
1E0F07C0
0C060380
ENDCHAR
STARTCHAR 006E
ENCODING 110
SWIDTH 525 0
DWIDTH 21 0
BBX 20 20 1 1
BITMAP
0C0200
1E0700
3F1F80
7F3FC0
FF5FE0
3F9F80
3F1F80
3F1F80
3F1F80
3F1F80
3F1F80
3F1F80
3F1F80
3F1F80
3F1F80
3F1F80
3F1FD0
FF8FE0
1E0F80
0C0700
ENDCHAR
STARTCHAR 006F
ENCODING 111
SWIDTH 475 0
DWIDTH 19 0
BBX 16 20 1 1
BITMAP
0018
003C
00FE
1F7F
7E3F
7E3F
7E3F
7E3F
7E3F
7E3F
7E3F
7E3F
7E3F
7E3F
7F3E
7FBE
FFF8
1FE0
0780
0100
ENDCHAR
STARTCHAR 0070
ENCODING 112
SWIDTH 525 0
DWIDTH 21 0
BBX 20 33 0 -8
BITMAP
070000
180000
3C0000
3E0000
3F81C0
3F87E0
3FCFE0
3FF7E0
1FC3F0
0FC3F0
0FC3F0
0FC3F0
0FC3F0
0FC3F0
0FC3F0
0FC3F0
1FC3F0
3FF3F0
7FFBE0
7FFFC0
4FFF00
87FC00
07F800
07D000
078000
078000
078000
038000
038000
038000
030000
010000
010000
ENDCHAR
STARTCHAR 0071
ENCODING 113
SWIDTH 500 0
DWIDTH 20 0
BBX 17 30 2 -8
BITMAP
00C000
01E000
07F000
1FFC00
7DFF80
FCFE00
FC7E00
FC7E00
FC7E00
FC7E00
FC7E00
FC7E00
FC7E00
FC7E00
FC7E00
FC7E00
FCFE00
FF7E00
FE7E00
7C7E00
787C00
107C00
003C00
003C00
003C00
003C00
001800
001800
001800
000800
ENDCHAR
STARTCHAR 0072
ENCODING 114
SWIDTH 425 0
DWIDTH 17 0
BBX 18 20 0 1
BITMAP
060000
0F0600
1F8F00
3F9F00
7FBF80
9FDFC0
1F8F80
1F8F00
1F8600
1F8400
1F8000
1F8000
1F8000
1F8000
1F8000
1F8000
1FC600
3FF800
07E000
018000
ENDCHAR
STARTCHAR 0073
ENCODING 115
SWIDTH 500 0
DWIDTH 20 0
BBX 18 26 1 0
BITMAP
01F800
030600
040100
080080
180080
100080
008080
01C180
03FF80
07FF80
1BFF00
31FF00
707E00
780700
F80F80
FC3FC0
7FFFC0
7E0FC0
1C0780
0E0780
0FC700
1FF600
3FFC00
7FF000
7FE000
FFC000
ENDCHAR
STARTCHAR 0074
ENCODING 116
SWIDTH 350 0
DWIDTH 14 0
BBX 12 26 1 0
BITMAP
0100
0100
0300
0300
0300
0700
0700
0F00
1F00
1FF0
3FF0
FFF0
3F00
3F00
3F00
3F00
3F00
3F00
3F00
3F00
3F00
3F10
3FE0
7F80
1F00
0600
ENDCHAR
STARTCHAR 0075
ENCODING 117
SWIDTH 525 0
DWIDTH 21 0
BBX 20 20 1 1
BITMAP
0C0200
1E0700
3F0F80
7F3FE0
FF1FC0
3F1F80
3F1F80
3F1F80
3F1F80
3F1F80
3F1F80
3F1F80
3F1F80
3F1F80
3F1F80
3F1F80
3F3FD0
FFDFE0
1F0F80
0C0700
ENDCHAR
STARTCHAR 0076
ENCODING 118
SWIDTH 500 0
DWIDTH 20 0
BBX 17 23 1 0
BITMAP
1E0000
600000
600000
F80000
FE0E00
FF1F00
FF7F80
7F9F80
3F1F80
3F1F80
3F1F80
3F1F80
3F1F80
3F1F80
3F1F80
3F1F80
3F1F80
3F1F80
3F1F00
7F9E00
1FF000
07C000
010000
ENDCHAR
STARTCHAR 0077
ENCODING 119
SWIDTH 725 0
DWIDTH 29 0
BBX 27 23 1 0
BITMAP
1C000000
60000000
E0000000
F8040100
FE0E0780
FF3F0FC0
FF7FBFC0
7FBFC7E0
3F1F87E0
3F1F87E0
3F1F87E0
3F1F87E0
3F1F87E0
3F1F87E0
3F1F87E0
3F1F87E0
3F1F87E0
3F1F87E0
3F1F8780
3F3FF600
7F3FF800
1C07C000
08018000
ENDCHAR
STARTCHAR 0078
ENCODING 120
SWIDTH 475 0
DWIDTH 19 0
BBX 19 20 0 0
BITMAP
060420
0F0720
1F8FE0
3F8FC0
7FD7C0
8FD380
0FE000
07E000
07F000
03F000
03F800
03F800
01FC00
01FC00
01FC00
017E00
397E00
7E3FE0
7E3F00
FC1800
ENDCHAR
STARTCHAR 0079
ENCODING 121
SWIDTH 500 0
DWIDTH 20 0
BBX 18 33 1 -9
BITMAP
1C0000
700000
600000
FC0000
FE0700
FF0F80
FF9F80
7FFFC0
1F8FC0
1F8FC0
1F8FC0
1F8FC0
1F8FC0
1F8FC0
1F8FC0
1F8FC0
1F8FC0
1F8FC0
1F8FC0
1F8FC0
7FCFC0
3F8FC0
0F0F80
060F80
000F80
000F00
001F00
001E00
001C00
003800
006000
00C000
030000
ENDCHAR
STARTCHAR 007A
ENCODING 122
SWIDTH 375 0
DWIDTH 15 0
BBX 15 30 0 -8
BITMAP
0180
03C0
07E0
1FE0
3FF0
47F0
03F0
03F0
03E0
0380
0618
0FE0
73F0
6DF8
10F8
30FC
607C
607E
407E
C07E
C07E
C07E
C07E
C07E
C07C
C07C
60F8
60F0
31E0
0F80
ENDCHAR
STARTCHAR 007B
ENCODING 123
SWIDTH 325 0
DWIDTH 13 0
BBX 11 37 1 -9
BITMAP
03E0
1FC0
1F80
3F00
3F00
3F00
3F00
3F00
3F00
3F00
3F00
3F00
3F00
3F00
3F00
3F00
3F00
7E00
F800
7E00
3F00
3F00
3F00
3F00
3F00
3F00
3F00
3F00
3F00
3F00
3F00
3F00
3F00
3F00
1F80
1FC0
07E0
ENDCHAR
STARTCHAR 007C
ENCODING 124
SWIDTH 225 0
DWIDTH 9 0
BBX 4 28 2 0
BITMAP
F0
F0
F0
F0
F0
F0
F0
F0
F0
F0
F0
F0
F0
F0
F0
F0
F0
F0
F0
F0
F0
F0
F0
F0
F0
F0
F0
F0
ENDCHAR
STARTCHAR 007D
ENCODING 125
SWIDTH 325 0
DWIDTH 13 0
BBX 11 37 1 -9
BITMAP
F800
3E00
1F00
1F00
1F00
1F00
1F00
1F00
1F00
1F00
1F00
1F00
1F00
1F00
1F00
0F80
0F80
0FC0
03E0
07C0
0F80
0F80
1F00
1F00
1F00
1F00
1F00
1F00
1F00
1F00
1F00
1F00
1F00
1F00
1F00
3E00
F800
ENDCHAR
STARTCHAR 007E
ENCODING 126
SWIDTH 450 0
DWIDTH 18 0
BBX 16 6 2 15
BITMAP
1800
1C03
3F06
7FFC
60F8
8038
ENDCHAR
STARTCHAR 00A0
ENCODING 160
SWIDTH 475 0
DWIDTH 19 0
BBX 0 0 0 0
BITMAP
ENDCHAR
STARTCHAR 00A1
ENCODING 161
SWIDTH 350 0
DWIDTH 14 0
BBX 7 29 3 -8
BITMAP
10
10
38
7C
FE
38
10
10
00
00
00
10
30
30
30
38
38
38
3C
7C
7C
7C
7E
7E
7E
7E
7E
7E
3C
ENDCHAR
STARTCHAR 00A2
ENCODING 162
SWIDTH 550 0
DWIDTH 22 0
BBX 22 27 2 -3
BITMAP
004000
004000
004000
03C080
0F6380
1E57C4
3E5BF8
7C71F0
7C7800
FCFC00
FCFC00
FCFE00
FCFF00
FC7F00
FC7F80
FC7F80
FD5F80
7CCF88
7C4708
3E7C10
3E4010
1F4020
07C1C0
01FF00
004000
004000
004000
ENDCHAR
STARTCHAR 00A3
ENCODING 163
SWIDTH 600 0
DWIDTH 24 0
BBX 22 28 1 0
BITMAP
007F80
03C0E0
078038
0F0078
1F00FC
1F03FC
3F83FC
3F83FC
3FC3F8
3FC0F0
3FE000
1FE000
0FF000
0FF000
FFFFF0
03E000
01C000
018000
020000
070000
0FE000
1FF804
3FFC04
4FFF0C
43FFF8
40FFF0
007FE0
000F80
ENDCHAR
STARTCHAR 00A4
ENCODING 164
SWIDTH 625 0
DWIDTH 25 0
BBX 18 18 4 4
BITMAP
63F100
FFFF80
7FFF80
7FFF00
7C1F00
F80F80
F00780
F00780
F003C0
F003C0
F007C0
F007C0
F80F80
7C1F80
7FFF00
7FFF80
EFFDC0
47F180
ENDCHAR
STARTCHAR 00A5
ENCODING 165
SWIDTH 625 0
DWIDTH 25 0
BBX 26 28 -1 0
BITMAP
FFF83FC0
1FE00780
0FC00700
0FC00600
07E00400
03E00800
03F00800
01F01000
01F81000
00F82000
00FC6000
007C4000
007E8000
003E8000
07FFFC00
003F0000
003F0000
003F0000
003F0000
07FFFC00
003F0000
003F0000
003F0000
003F0000
003F0000
003F0000
003F8000
01FFE000
ENDCHAR
STARTCHAR 00A6
ENCODING 166
SWIDTH 225 0
DWIDTH 9 0
BBX 4 28 2 0
BITMAP
F0
F0
F0
F0
F0
F0
F0
F0
F0
F0
F0
F0
00
00
00
00
00
00
F0
F0
F0
F0
F0
F0
F0
F0
F0
F0
ENDCHAR
STARTCHAR 00A7
ENCODING 167
SWIDTH 600 0
DWIDTH 24 0
BBX 19 37 2 -9
BITMAP
01FC00
078700
0E0380
1E0780
1C0F80
1E0F80
3E0F80
3F8000
1FE000
1FFC00
1FFF00
0FFF80
0FFFC0
11FFE0
307FE0
600FE0
7003E0
7800E0
FC0060
FF0060
7FC060
7FF040
7FFC80
3FFF00
0FFF80
03FFC0
00FFC0
001FC0
0007C0
1C03C0
3E01C0
7E01C0
7E01C0
3E0180
1C0380
0E0600
03F800
ENDCHAR
STARTCHAR 00A8
ENCODING 168
SWIDTH 400 0
DWIDTH 16 0
BBX 14 5 0 26
BITMAP
1010
3838
FCFC
3838
1010
ENDCHAR
STARTCHAR 00A9
ENCODING 169
SWIDTH 775 0
DWIDTH 31 0
BBX 29 28 1 0
BITMAP
001FE000
00FFF800
01FFFE00
07E03F80
0F8007C0
1F0003C0
1C0001E0
3C3C80F0
78E3C070
71E27878
71EE0038
71EF0038
E3DF0038
E3CF8038
E3CF8038
E1D78038
71D38038
71F38838
70EB1078
78742070
3C1840F0
3C0781E0
1F0003C0
0F8007C0
07E03F00
03FFFE00
00FFFC00
001FE000
ENDCHAR
STARTCHAR 00AA
ENCODING 170
SWIDTH 375 0
DWIDTH 15 0
BBX 12 15 2 14
BITMAP
0300
0F80
37C0
71F0
F1E0
F1E0
F1E0
F1E0
F1E0
F1E0
F1E0
F3E0
FDF0
78E0
3040
ENDCHAR
STARTCHAR 00AB
ENCODING 171
SWIDTH 400 0
DWIDTH 16 0
BBX 12 15 2 3
BITMAP
0210
0430
0C60
1CE0
39E0
7BC0
F3C0
F7C0
F7C0
7BC0
39E0
1CE0
0C60
0430
0210
ENDCHAR
STARTCHAR 00AC
ENCODING 172
SWIDTH 950 0
DWIDTH 38 0
BBX 34 12 2 -2
BITMAP
7007230000
8805220000
8005240000
81E5287240
6225284A40
1225348A40
0A2524F280
8A25228180
8A25224980
7144A17180
0080000100
0000000100
ENDCHAR
STARTCHAR 00AD
ENCODING 173
SWIDTH 425 0
DWIDTH 17 0
BBX 11 3 3 9
BITMAP
FFE0
FFE0
FFE0
ENDCHAR
STARTCHAR 00AE
ENCODING 174
SWIDTH 775 0
DWIDTH 31 0
BBX 29 28 1 0
BITMAP
001FE000
00FFF800
01FFFE00
07E03F80
0F8007C0
1F0003C0
1C0001E0
3C0000F0
787DF070
719F7878
719E7838
71CE7838
E1EE3838
E1EE1438
E0EFF038
E06EF038
718EF038
71CEF038
71CCF078
79CCF470
3C9078F0
3C6001E0
1F0003C0
0F8007C0
07E03F00
03FFFE00
00FFFC00
001FE000
ENDCHAR
STARTCHAR 00AF
ENCODING 175
SWIDTH 275 0
DWIDTH 11 0
BBX 0 0 0 0
BITMAP
ENDCHAR
STARTCHAR 00B0
ENCODING 176
SWIDTH 275 0
DWIDTH 11 0
BBX 9 9 1 20
BITMAP
3C00
6300
C300
C180
C180
C180
C300
6300
3C00
ENDCHAR
STARTCHAR 00B1
ENCODING 177
SWIDTH 600 0
DWIDTH 24 0
BBX 20 23 2 0
BITMAP
00F000
00F000
00F000
00F000
00F000
00F000
FFFFF0
FFFFF0
FFFFF0
FFFFF0
00F000
00F000
00F000
00F000
00F000
00F000
00F000
00F000
000000
FFFFF0
FFFFF0
FFFFF0
FFFFF0
ENDCHAR
STARTCHAR 00B2
ENCODING 178
SWIDTH 350 0
DWIDTH 14 0
BBX 12 16 0 12
BITMAP
1F80
21E0
40F0
40F0
F0F0
F0F0
70F0
71F0
03C0
0F00
1010
2010
7FF0
8FF0
C7E0
43C0
ENDCHAR
STARTCHAR 00B3
ENCODING 179
SWIDTH 300 0
DWIDTH 12 0
BBX 12 16 0 12
BITMAP
1F80
23C0
71E0
79E0
39E0
01E0
01E0
01C0
1F80
03E0
71F0
F1F0
F1F0
E1F0
43E0
3F80
ENDCHAR
STARTCHAR 00B4
ENCODING 180
SWIDTH 225 0
DWIDTH 9 0
BBX 6 6 1 24
BITMAP
10
3C
3C
3C
7C
C0
ENDCHAR
STARTCHAR 00B5
ENCODING 181
SWIDTH 525 0
DWIDTH 21 0
BBX 20 30 1 -8
BITMAP
0C0200
1E0700
3F0F80
7F3FE0
FF1FC0
3F1F80
3F1F80
3F1F80
3F1F80
3F1F80
3F1F80
3F1F80
3F1F80
3F1F80
3F1F80
3F1F80
3F3FD0
3FFFE0
3F9FC0
3F0F80
3F0700
3E0200
1E0000
1E0000
1E0000
1E0000
1C0000
0C0000
0C0000
080000
ENDCHAR
STARTCHAR 00B6
ENCODING 182
SWIDTH 600 0
DWIDTH 24 0
BBX 20 37 2 -9
BITMAP
1FFFF0
3FE3C0
7FE3C0
FFE3C0
FFE3C0
FFE3C0
FFE3C0
FFE3C0
FFE3C0
FFE3C0
FFE3C0
FFE3C0
FFE3C0
7FE3C0
3FE3C0
1FE3C0
03E3C0
03E3C0
03E3C0
03E3C0
03E3C0
03E3C0
03E3C0
03E3C0
03E3C0
03E3C0
03E3C0
03E3C0
03E3C0
03E3C0
03E3C0
03E3C0
03E3C0
03E3C0
07E3C0
07E3C0
1FE3F0
ENDCHAR
STARTCHAR 00B7
ENCODING 183
SWIDTH 200 0
DWIDTH 8 0
BBX 4 4 2 8
BITMAP
60
F0
F0
60
ENDCHAR
STARTCHAR 00B8
ENCODING 184
SWIDTH 275 0
DWIDTH 11 0
BBX 0 0 0 0
BITMAP
ENDCHAR
STARTCHAR 00B9
ENCODING 185
SWIDTH 250 0
DWIDTH 10 0
BBX 10 14 1 13
BITMAP
0600
0E00
1E00
FE00
1E00
1E00
1E00
1E00
1E00
1E00
1E00
1E00
1E00
7FC0
ENDCHAR
STARTCHAR 00BA
ENCODING 186
SWIDTH 375 0
DWIDTH 15 0
BBX 11 15 2 14
BITMAP
0080
01C0
1FE0
F1E0
F1E0
F1E0
F1E0
F1E0
F1E0
F1E0
F9E0
FDE0
7F80
1E00
0C00
ENDCHAR
STARTCHAR 00BB
ENCODING 187
SWIDTH 400 0
DWIDTH 16 0
BBX 12 15 2 3
BITMAP
0400
8600
C300
6380
71C0
39E0
3DF0
3EF0
3DE0
39C0
7180
6380
C300
8600
0400
ENDCHAR
STARTCHAR 00BC
ENCODING 188
SWIDTH 700 0
DWIDTH 28 0
BBX 25 29 1 -1
BITMAP
00000C00
06000C00
06001800
1E001800
FE003000
1E006000
1E006000
1E00C000
1E00C000
1E018000
1E030000
1E030000
1E060000
1E060000
7FCC0E00
001C1E00
00183E00
00303E00
00305E00
00609E00
00E19E00
00C11E00
01C21E00
01861E00
0307FF80
07001E00
06001E00
0E007F80
0C000000
ENDCHAR
STARTCHAR 00BD
ENCODING 189
SWIDTH 725 0
DWIDTH 29 0
BBX 26 28 1 0
BITMAP
00001000
06001800
0E003800
1E007000
FE006000
1E00E000
1E01C000
1E018000
1E038000
1E070000
1E060000
1E0E0000
1E1C0000
1E187E00
7FF98700
00330380
0063C3C0
00E3E3C0
00C3E3C0
0181C780
03800F00
03001C00
06002040
0E00C0C0
0C00FFC0
18013F80
38011F80
00018F00
ENDCHAR
STARTCHAR 00BE
ENCODING 190
SWIDTH 725 0
DWIDTH 29 0
BBX 27 28 1 1
BITMAP
00000600
1F800C00
23C00C00
71E01800
79E03000
39E03000
01E06000
01C0E000
1F80C000
03E18000
01F38000
F1F30000
F1F60000
C3E60380
3F8C0380
001C0780
00180F80
00301F80
00701780
00602780
00C04780
01C0C780
01808780
0381FFE0
07000780
06000780
0E000780
00001FE0
ENDCHAR
STARTCHAR 00BF
ENCODING 191
SWIDTH 425 0
DWIDTH 17 0
BBX 15 29 1 -8
BITMAP
0100
0380
07C0
0FE0
1FE0
07C0
0380
0100
0000
0000
0780
0840
1020
1020
1860
00E0
01C0
07C0
1F80
3F1C
7F3E
FE3E
FE3E
FC1E
FC06
7C06
3E04
1F08
07F0
ENDCHAR
STARTCHAR 00C0
ENCODING 192
SWIDTH 750 0
DWIDTH 30 0
BBX 0 0 0 0
BITMAP
ENDCHAR
STARTCHAR 00C1
ENCODING 193
SWIDTH 750 0
DWIDTH 30 0
BBX 0 0 0 0
BITMAP
ENDCHAR
STARTCHAR 00C2
ENCODING 194
SWIDTH 750 0
DWIDTH 30 0
BBX 0 0 0 0
BITMAP
ENDCHAR
STARTCHAR 00C3
ENCODING 195
SWIDTH 750 0
DWIDTH 30 0
BBX 0 0 0 0
BITMAP
ENDCHAR
STARTCHAR 00C4
ENCODING 196
SWIDTH 750 0
DWIDTH 30 0
BBX 0 0 0 0
BITMAP
ENDCHAR
STARTCHAR 00C5
ENCODING 197
SWIDTH 750 0
DWIDTH 30 0
BBX 0 0 0 0
BITMAP
ENDCHAR
STARTCHAR 00C6
ENCODING 198
SWIDTH 975 0
DWIDTH 39 0
BBX 0 0 0 0
BITMAP
ENDCHAR
STARTCHAR 00C7
ENCODING 199
SWIDTH 725 0
DWIDTH 29 0
BBX 0 0 0 0
BITMAP
ENDCHAR
STARTCHAR 00C8
ENCODING 200
SWIDTH 775 0
DWIDTH 31 0
BBX 0 0 0 0
BITMAP
ENDCHAR
STARTCHAR 00C9
ENCODING 201
SWIDTH 775 0
DWIDTH 31 0
BBX 0 0 0 0
BITMAP
ENDCHAR
STARTCHAR 00CA
ENCODING 202
SWIDTH 775 0
DWIDTH 31 0
BBX 0 0 0 0
BITMAP
ENDCHAR
STARTCHAR 00CB
ENCODING 203
SWIDTH 775 0
DWIDTH 31 0
BBX 0 0 0 0
BITMAP
ENDCHAR
STARTCHAR 00CC
ENCODING 204
SWIDTH 650 0
DWIDTH 26 0
BBX 0 0 0 0
BITMAP
ENDCHAR
STARTCHAR 00CD
ENCODING 205
SWIDTH 650 0
DWIDTH 26 0
BBX 0 0 0 0
BITMAP
ENDCHAR
STARTCHAR 00CE
ENCODING 206
SWIDTH 650 0
DWIDTH 26 0
BBX 0 0 0 0
BITMAP
ENDCHAR
STARTCHAR 00CF
ENCODING 207
SWIDTH 650 0
DWIDTH 26 0
BBX 0 0 0 0
BITMAP
ENDCHAR
STARTCHAR 00D0
ENCODING 208
SWIDTH 775 0
DWIDTH 31 0
BBX 0 0 0 0
BITMAP
ENDCHAR
STARTCHAR 00D1
ENCODING 209
SWIDTH 775 0
DWIDTH 31 0
BBX 0 0 0 0
BITMAP
ENDCHAR
STARTCHAR 00D2
ENCODING 210
SWIDTH 800 0
DWIDTH 32 0
BBX 0 0 0 0
BITMAP
ENDCHAR
STARTCHAR 00D3
ENCODING 211
SWIDTH 800 0
DWIDTH 32 0
BBX 0 0 0 0
BITMAP
ENDCHAR
STARTCHAR 00D4
ENCODING 212
SWIDTH 800 0
DWIDTH 32 0
BBX 0 0 0 0
BITMAP
ENDCHAR
STARTCHAR 00D5
ENCODING 213
SWIDTH 800 0
DWIDTH 32 0
BBX 0 0 0 0
BITMAP
ENDCHAR
STARTCHAR 00D6
ENCODING 214
SWIDTH 800 0
DWIDTH 32 0
BBX 0 0 0 0
BITMAP
ENDCHAR
STARTCHAR 00D7
ENCODING 215
SWIDTH 600 0
DWIDTH 24 0
BBX 17 18 3 0
BITMAP
200200
700700
F80F80
FC1F80
7E3F00
3F7E00
1FFC00
0FF800
07F000
03F000
07F800
0FFC00
1F7C00
3E3E00
7C1F00
F80F80
700700
200200
ENDCHAR
STARTCHAR 00D8
ENCODING 216
SWIDTH 800 0
DWIDTH 32 0
BBX 0 0 0 0
BITMAP
ENDCHAR
STARTCHAR 00D9
ENCODING 217
SWIDTH 650 0
DWIDTH 26 0
BBX 0 0 0 0
BITMAP
ENDCHAR
STARTCHAR 00DA
ENCODING 218
SWIDTH 650 0
DWIDTH 26 0
BBX 0 0 0 0
BITMAP
ENDCHAR
STARTCHAR 00DB
ENCODING 219
SWIDTH 650 0
DWIDTH 26 0
BBX 0 0 0 0
BITMAP
ENDCHAR
STARTCHAR 00DC
ENCODING 220
SWIDTH 650 0
DWIDTH 26 0
BBX 0 0 0 0
BITMAP
ENDCHAR
STARTCHAR 00DD
ENCODING 221
SWIDTH 775 0
DWIDTH 31 0
BBX 0 0 0 0
BITMAP
ENDCHAR
STARTCHAR 00DE
ENCODING 222
SWIDTH 800 0
DWIDTH 32 0
BBX 0 0 0 0
BITMAP
ENDCHAR
STARTCHAR 00DF
ENCODING 223
SWIDTH 525 0
DWIDTH 21 0
BBX 18 36 1 -9
BITMAP
1E0000
3F9000
3FF000
3FE000
4FE000
43C000
200000
300000
780600
7E0F00
7F3F80
FF7F80
3F9F80
3F1FC0
3F1FC0
3F0F80
3F0F80
3F1F00
3F1E00
3F1800
3F3E00
3F7F00
3E9F80
3E1F80
1E1FC0
1E1FC0
1E0FC0
1E0F80
1E0F80
1E0F80
1E1F00
0E1F00
0D3E00
0CF800
0C0000
0C0000
ENDCHAR
STARTCHAR 00E0
ENCODING 224
SWIDTH 500 0
DWIDTH 20 0
BBX 0 0 0 0
BITMAP
ENDCHAR
STARTCHAR 00E1
ENCODING 225
SWIDTH 500 0
DWIDTH 20 0
BBX 0 0 0 0
BITMAP
ENDCHAR
STARTCHAR 00E2
ENCODING 226
SWIDTH 500 0
DWIDTH 20 0
BBX 0 0 0 0
BITMAP
ENDCHAR
STARTCHAR 00E3
ENCODING 227
SWIDTH 500 0
DWIDTH 20 0
BBX 0 0 0 0
BITMAP
ENDCHAR
STARTCHAR 00E4
ENCODING 228
SWIDTH 500 0
DWIDTH 20 0
BBX 0 0 0 0
BITMAP
ENDCHAR
STARTCHAR 00E5
ENCODING 229
SWIDTH 500 0
DWIDTH 20 0
BBX 0 0 0 0
BITMAP
ENDCHAR
STARTCHAR 00E6
ENCODING 230
SWIDTH 625 0
DWIDTH 25 0
BBX 0 0 0 0
BITMAP
ENDCHAR
STARTCHAR 00E7
ENCODING 231
SWIDTH 400 0
DWIDTH 16 0
BBX 0 0 0 0
BITMAP
ENDCHAR
STARTCHAR 00E8
ENCODING 232
SWIDTH 425 0
DWIDTH 17 0
BBX 0 0 0 0
BITMAP
ENDCHAR
STARTCHAR 00E9
ENCODING 233
SWIDTH 425 0
DWIDTH 17 0
BBX 0 0 0 0
BITMAP
ENDCHAR
STARTCHAR 00EA
ENCODING 234
SWIDTH 425 0
DWIDTH 17 0
BBX 0 0 0 0
BITMAP
ENDCHAR
STARTCHAR 00EB
ENCODING 235
SWIDTH 425 0
DWIDTH 17 0
BBX 0 0 0 0
BITMAP
ENDCHAR
STARTCHAR 00EC
ENCODING 236
SWIDTH 300 0
DWIDTH 12 0
BBX 0 0 0 0
BITMAP
ENDCHAR
STARTCHAR 00ED
ENCODING 237
SWIDTH 300 0
DWIDTH 12 0
BBX 0 0 0 0
BITMAP
ENDCHAR
STARTCHAR 00EE
ENCODING 238
SWIDTH 300 0
DWIDTH 12 0
BBX 0 0 0 0
BITMAP
ENDCHAR
STARTCHAR 00EF
ENCODING 239
SWIDTH 300 0
DWIDTH 12 0
BBX 0 0 0 0
BITMAP
ENDCHAR
STARTCHAR 00F0
ENCODING 240
SWIDTH 500 0
DWIDTH 20 0
BBX 0 0 0 0
BITMAP
ENDCHAR
STARTCHAR 00F1
ENCODING 241
SWIDTH 525 0
DWIDTH 21 0
BBX 0 0 0 0
BITMAP
ENDCHAR
STARTCHAR 00F2
ENCODING 242
SWIDTH 475 0
DWIDTH 19 0
BBX 0 0 0 0
BITMAP
ENDCHAR
STARTCHAR 00F3
ENCODING 243
SWIDTH 475 0
DWIDTH 19 0
BBX 0 0 0 0
BITMAP
ENDCHAR
STARTCHAR 00F4
ENCODING 244
SWIDTH 475 0
DWIDTH 19 0
BBX 0 0 0 0
BITMAP
ENDCHAR
STARTCHAR 00F5
ENCODING 245
SWIDTH 475 0
DWIDTH 19 0
BBX 0 0 0 0
BITMAP
ENDCHAR
STARTCHAR 00F6
ENCODING 246
SWIDTH 475 0
DWIDTH 19 0
BBX 0 0 0 0
BITMAP
ENDCHAR
STARTCHAR 00F7
ENCODING 247
SWIDTH 600 0
DWIDTH 24 0
BBX 21 24 1 0
BITMAP
002000
006000
00F000
01FC00
01FC00
00F000
007000
002000
000000
000000
FFFFF8
FFFFF8
FFFFF8
FFFFF8
000000
000000
002000
006000
00F000
01FC00
01FC00
00F000
007000
002000
ENDCHAR
STARTCHAR 00F8
ENCODING 248
SWIDTH 475 0
DWIDTH 19 0
BBX 0 0 0 0
BITMAP
ENDCHAR
STARTCHAR 00F9
ENCODING 249
SWIDTH 525 0
DWIDTH 21 0
BBX 0 0 0 0
BITMAP
ENDCHAR
STARTCHAR 00FA
ENCODING 250
SWIDTH 525 0
DWIDTH 21 0
BBX 0 0 0 0
BITMAP
ENDCHAR
STARTCHAR 00FB
ENCODING 251
SWIDTH 525 0
DWIDTH 21 0
BBX 0 0 0 0
BITMAP
ENDCHAR
STARTCHAR 00FC
ENCODING 252
SWIDTH 525 0
DWIDTH 21 0
BBX 0 0 0 0
BITMAP
ENDCHAR
STARTCHAR 00FD
ENCODING 253
SWIDTH 500 0
DWIDTH 20 0
BBX 0 0 0 0
BITMAP
ENDCHAR
STARTCHAR 00FE
ENCODING 254
SWIDTH 525 0
DWIDTH 21 0
BBX 0 0 0 0
BITMAP
ENDCHAR
STARTCHAR 00FF
ENCODING 255
SWIDTH 500 0
DWIDTH 20 0
BBX 0 0 0 0
BITMAP
ENDCHAR
STARTCHAR 0131
ENCODING 305
SWIDTH 300 0
DWIDTH 12 0
BBX 0 0 0 0
BITMAP
ENDCHAR
STARTCHAR 0141
ENCODING 321
SWIDTH 575 0
DWIDTH 23 0
BBX 0 0 0 0
BITMAP
ENDCHAR
STARTCHAR 0142
ENCODING 322
SWIDTH 300 0
DWIDTH 12 0
BBX 0 0 0 0
BITMAP
ENDCHAR
STARTCHAR 0152
ENCODING 338
SWIDTH 975 0
DWIDTH 39 0
BBX 0 0 0 0
BITMAP
ENDCHAR
STARTCHAR 0153
ENCODING 339
SWIDTH 675 0
DWIDTH 27 0
BBX 0 0 0 0
BITMAP
ENDCHAR
STARTCHAR 0160
ENCODING 352
SWIDTH 775 0
DWIDTH 31 0
BBX 0 0 0 0
BITMAP
ENDCHAR
STARTCHAR 0161
ENCODING 353
SWIDTH 500 0
DWIDTH 20 0
BBX 0 0 0 0
BITMAP
ENDCHAR
STARTCHAR 0178
ENCODING 376
SWIDTH 775 0
DWIDTH 31 0
BBX 0 0 0 0
BITMAP
ENDCHAR
STARTCHAR 017D
ENCODING 381
SWIDTH 625 0
DWIDTH 25 0
BBX 0 0 0 0
BITMAP
ENDCHAR
STARTCHAR 017E
ENCODING 382
SWIDTH 375 0
DWIDTH 15 0
BBX 0 0 0 0
BITMAP
ENDCHAR
STARTCHAR 0192
ENCODING 402
SWIDTH 600 0
DWIDTH 24 0
BBX 26 38 -2 -9
BITMAP
0000FE00
0003E380
0007C7C0
000FC7C0
001F8FC0
001F8FC0
001F8780
003F8000
003F8000
003F0000
003F0000
003F0000
003F0000
003F0000
003F0000
07FFFC00
003F0000
003F0000
003F0000
003F0000
003F0000
003F0000
003F0000
003F0000
007F0000
007E0000
007E0000
007E0000
007E0000
007E0000
007E0000
787E0000
7C7E0000
FC7C0000
FC7C0000
78F80000
71F00000
1FC00000
ENDCHAR
STARTCHAR 02BA
ENCODING 698
SWIDTH 1000 0
DWIDTH 40 0
BBX 0 0 0 0
BITMAP
ENDCHAR
STARTCHAR 02C6
ENCODING 710
SWIDTH 350 0
DWIDTH 14 0
BBX 0 0 0 0
BITMAP
ENDCHAR
STARTCHAR 02C7
ENCODING 711
SWIDTH 275 0
DWIDTH 11 0
BBX 0 0 0 0
BITMAP
ENDCHAR
STARTCHAR 02D8
ENCODING 728
SWIDTH 275 0
DWIDTH 11 0
BBX 0 0 0 0
BITMAP
ENDCHAR
STARTCHAR 02D9
ENCODING 729
SWIDTH 1000 0
DWIDTH 40 0
BBX 0 0 0 0
BITMAP
ENDCHAR
STARTCHAR 02DA
ENCODING 730
SWIDTH 275 0
DWIDTH 11 0
BBX 0 0 0 0
BITMAP
ENDCHAR
STARTCHAR 02DB
ENCODING 731
SWIDTH 1000 0
DWIDTH 40 0
BBX 0 0 0 0
BITMAP
ENDCHAR
STARTCHAR 02DC
ENCODING 732
SWIDTH 350 0
DWIDTH 14 0
BBX 0 0 0 0
BITMAP
ENDCHAR
STARTCHAR 2013
ENCODING 8211
SWIDTH 500 0
DWIDTH 20 0
BBX 19 3 0 9
BITMAP
FFFFE0
FFFFE0
FFFFE0
ENDCHAR
STARTCHAR 2014
ENCODING 8212
SWIDTH 775 0
DWIDTH 31 0
BBX 30 3 0 9
BITMAP
FFFFFFFC
FFFFFFFC
FFFFFFFC
ENDCHAR
STARTCHAR 2018
ENCODING 8216
SWIDTH 350 0
DWIDTH 14 0
BBX 8 16 3 13
BITMAP
01
02
04
08
08
08
18
18
18
3C
7C
FF
7E
3C
18
10
ENDCHAR
STARTCHAR 2019
ENCODING 8217
SWIDTH 350 0
DWIDTH 14 0
BBX 8 16 3 11
BITMAP
10
18
3C
7E
FF
7C
3C
38
18
10
10
10
20
20
40
80
ENDCHAR
STARTCHAR 201A
ENCODING 8218
SWIDTH 350 0
DWIDTH 14 0
BBX 8 16 3 -8
BITMAP
10
18
3C
FE
FF
7C
3C
18
18
10
10
20
20
40
40
80
ENDCHAR
STARTCHAR 201C
ENCODING 8220
SWIDTH 575 0
DWIDTH 23 0
BBX 17 16 3 13
BITMAP
010080
020100
040200
040200
080400
080400
080400
180C00
180E00
3C1E00
3E1F00
FF7F80
7E3F00
3C1E00
180C00
000400
ENDCHAR
STARTCHAR 201D
ENCODING 8221
SWIDTH 575 0
DWIDTH 23 0
BBX 17 16 3 11
BITMAP
100400
180C00
3C1E00
7E3F00
FF7F80
7E3F00
3C1E00
180C00
180C00
100C00
100800
100800
201000
201000
402000
804000
ENDCHAR
STARTCHAR 201E
ENCODING 8222
SWIDTH 575 0
DWIDTH 23 0
BBX 17 16 3 -8
BITMAP
100400
180C00
3C1E00
FE3F00
FF7F80
7E1F00
3C1E00
180C00
180C00
100C00
100800
100800
201000
401000
402000
804000
ENDCHAR
STARTCHAR 2020
ENCODING 8224
SWIDTH 600 0
DWIDTH 24 0
BBX 21 37 2 -9
BITMAP
00F000
01F800
01FC00
01FC00
01F800
00F800
00F000
007000
7070F0
FC23F0
FF27F8
FFFFF8
FF27F8
FC21F0
7060E0
007000
00F800
03FC00
03FC00
01FC00
01FC00
01F800
00F800
00F800
00F000
007000
007000
007000
006000
006000
006000
002000
002000
002000
002000
002000
002000
ENDCHAR
STARTCHAR 2021
ENCODING 8225
SWIDTH 600 0
DWIDTH 24 0
BBX 21 37 2 -9
BITMAP
00F000
01F800
01FC00
01FC00
01F800
00F800
00F000
007000
7060E0
FC63F0
FF2FF8
FFFFF8
FF27F8
FC21F0
706070
007000
00F800
01FC00
03FE00
01FC00
00F800
00F000
7060E0
FC21F0
FF2FF8
FFFFF8
FF27F8
FC61F0
707060
00F000
00F800
00F800
01F800
01FC00
01FC00
01F800
00F000
ENDCHAR
STARTCHAR 2022
ENCODING 8226
SWIDTH 425 0
DWIDTH 17 0
BBX 12 11 2 7
BITMAP
0600
0600
0F00
1F80
3FE0
FFF0
3FE0
1F80
0F00
0600
0600
ENDCHAR
STARTCHAR 2026
ENCODING 8230
SWIDTH 975 0
DWIDTH 39 0
BBX 33 8 3 0
BITMAP
1000800400
3001C00E00
7801C00F00
FE07F03F80
FE07F03F80
3803C00F00
3801C00E00
1000800400
ENDCHAR
STARTCHAR 2030
ENCODING 8240
SWIDTH 975 0
DWIDTH 39 0
BBX 38 27 0 0
BITMAP
07C0080000
1CF0180000
38F8180000
78FC300000
78FC700000
78FC600000
F8FCC00000
78FDC00000
78FD800000
78FF800000
38FB000000
1CF6000000
07CE000000
000C000000
0018F807E0
0039DC0F70
00339E1E78
00779F3E7C
00679F3E7C
00C79F3E7C
01CF9F7E7C
01879F3E7C
03079F3E7C
07079F3E7C
06039E1E78
0E01DC0F70
0C00F807C0
ENDCHAR
STARTCHAR 2039
ENCODING 8249
SWIDTH 275 0
DWIDTH 11 0
BBX 7 15 2 3
BITMAP
02
04
0C
1C
38
78
70
F0
70
38
38
1C
0C
04
02
ENDCHAR
STARTCHAR 203A
ENCODING 8250
SWIDTH 275 0
DWIDTH 11 0
BBX 7 15 2 3
BITMAP
80
C0
60
70
38
38
1C
1E
1C
38
38
70
60
C0
80
ENDCHAR
STARTCHAR 2122
ENCODING 8482
SWIDTH 950 0
DWIDTH 38 0
BBX 35 14 1 13
BITMAP
1F0038E380
3FC87DFFC0
7FE48F79C0
43FCCF79C0
817CEF79C0
8380EF7860
4FC0FF79C0
33C06F79C0
03C02F71C0
1E804E71C0
3F042C21C0
4FC479C1C0
87F8F3C1E0
01F0358080
ENDCHAR
STARTCHAR 2215
ENCODING 8725
SWIDTH 150 0
DWIDTH 6 0
BBX 19 29 -6 0
BITMAP
000040
0000E0
0001C0
000180
000380
000300
000600
000E00
000C00
001C00
003800
003000
007000
006000
00C000
01C000
018000
038000
030000
060000
0E0000
0C0000
1C0000
380000
300000
700000
600000
C00000
400000
ENDCHAR
STARTCHAR 2219
ENCODING 8729
SWIDTH 200 0
DWIDTH 8 0
BBX 4 4 2 8
BITMAP
60
F0
F0
60
ENDCHAR
STARTCHAR F000
ENCODING 61440
SWIDTH 1000 0
DWIDTH 40 0
BBX 0 0 0 0
BITMAP
ENDCHAR
STARTCHAR F001
ENCODING 61441
SWIDTH 600 0
DWIDTH 24 0
BBX 19 36 1 -9
BITMAP
1E2000
3F6000
3FE000
3FE000
3FC000
278000
200000
200400
780E00
7C3F00
7FFFE0
FFBF80
3F9F80
3F9F80
3F9F80
3F9F80
3F1F80
3F1F80
3F1F80
3F1F80
3F1F80
3F1F80
3F1F80
3F1FA0
1F1FC0
1E1F80
1E1F00
1E0E00
1E0400
1E0000
0C0000
0C0000
0C0000
0C0000
0C0000
0C0000
ENDCHAR
STARTCHAR F002
ENCODING 61442
SWIDTH 600 0
DWIDTH 24 0
BBX 22 36 1 -9
BITMAP
1E203C
3FA1F0
3FE3E0
3FF7E0
3FF7E0
27CFE0
200FE0
200FE0
7007E0
7C07E0
7FF7E0
FFF7E0
3F87E0
3F87E0
3F87E0
3F87E0
3F87E0
3F07E0
3F07E0
3F07E0
3F07E0
3F07E0
3F07E0
3F07E4
1E1FF8
1E0FF0
1E03E0
1E01C0
1E0080
1E0000
0C0000
0C0000
0C0000
0C0000
0C0000
0C0000
ENDCHAR
ENDFONT
